<svg width="109" height="18" viewBox="0 0 109 18" fill="none" xmlns="http://www.w3.org/2000/svg">
<path d="M23.7384 6.24512L23.7384 6.24509L23.7334 6.24571C23.3605 6.2918 23.0292 6.54753 22.9061 6.93267C22.7826 7.31886 22.9068 7.71951 23.179 7.97215C23.4497 8.22448 23.7857 8.74196 24.1361 9.46457C24.4791 10.172 24.8124 11.026 25.0941 11.9027C25.3757 12.7793 25.6022 13.6676 25.7354 14.4425C25.8716 15.2343 25.8997 15.8508 25.8265 16.2135L26.3166 16.3124L25.8265 16.2135L25.8159 16.266L25.8159 16.266L25.8146 16.2728C25.7474 16.6311 25.8719 17.029 26.1998 17.2722C26.5308 17.5186 26.9529 17.5173 27.2744 17.3323L27.2759 17.3314L27.7595 17.0507C30.0948 15.6944 32.9786 15.6937 35.3123 17.0516L35.7944 17.3321L35.7944 17.3322L35.8018 17.3364C36.1219 17.5153 36.5417 17.5195 36.8739 17.2723C37.2014 17.0293 37.3273 16.6308 37.2576 16.2708L37.2576 16.2708L37.2568 16.2671L37.0965 15.4729C36.5795 12.9122 37.4313 10.2665 39.3448 8.48806L39.8967 7.97513L39.8967 7.97516L39.9016 7.97047C40.1677 7.71622 40.2919 7.31943 40.1701 6.93416L39.6933 7.08494L40.1701 6.93415C40.048 6.54823 39.7151 6.29165 39.3407 6.24739L39.3388 6.24717L38.7366 6.17844C36.0893 5.87663 33.7992 4.19579 32.721 1.75988L32.4402 1.12558L32.4403 1.12554L32.4365 1.11739C32.2829 0.786491 31.9486 0.533936 31.5364 0.533936C31.1254 0.533936 30.7859 0.786904 30.6357 1.12497L30.6355 1.12538L30.3551 1.75848C29.2759 4.19506 26.9857 5.87726 24.338 6.17718L23.7384 6.24512Z" fill="#FFC700" stroke="#FFA800"/>
<path d="M1.38 6.21118L1.37999 6.21115L1.37498 6.21178C1.00206 6.25786 0.670837 6.51359 0.5477 6.89873C0.424227 7.28492 0.548385 7.68558 0.820648 7.93821C1.09128 8.19055 1.42731 8.70803 1.7777 9.43063C2.12074 10.1381 2.45403 10.9921 2.73569 11.8687C3.01734 12.7454 3.24385 13.6337 3.37704 14.4085C3.51315 15.2004 3.54133 15.8169 3.46813 16.1795L3.95825 16.2785L3.46813 16.1795L3.45753 16.2321L3.45748 16.2321L3.45622 16.2388C3.389 16.5972 3.51349 16.995 3.84138 17.2383C4.17236 17.4847 4.59447 17.4834 4.91596 17.2984L4.91751 17.2975L5.40108 17.0168C7.73643 15.6605 10.6202 15.6598 12.9539 17.0177L13.436 17.2982L13.436 17.2983L13.4434 17.3024C13.7635 17.4814 14.1833 17.4856 14.5155 17.2383C14.843 16.9954 14.9689 16.5969 14.8992 16.2369L14.8992 16.2369L14.8984 16.2331L14.7381 15.4389C14.2211 12.8783 15.0729 10.2326 16.9864 8.45412L17.5383 7.94119L17.5383 7.94123L17.5432 7.93654C17.8094 7.68228 17.9335 7.2855 17.8117 6.90022L17.3349 7.051L17.8117 6.90022C17.6896 6.51429 17.3567 6.25772 16.9823 6.21345L16.9804 6.21323L16.3782 6.14451C13.7309 5.8427 11.4408 4.16186 10.3626 1.72595L10.0818 1.09164L10.0819 1.09161L10.0781 1.08346C9.9245 0.752555 9.59018 0.5 9.17798 0.5C8.76704 0.5 8.42749 0.752969 8.27733 1.09103L8.27715 1.09145L7.99669 1.72455C6.91749 4.16112 4.62731 5.84333 1.97956 6.14325L1.38 6.21118Z" fill="#FFC700" stroke="#FFA800"/>
<path d="M46.0968 6.21118L46.0968 6.21115L46.0918 6.21178C45.7189 6.25786 45.3876 6.51359 45.2645 6.89873C45.141 7.28492 45.2652 7.68558 45.5374 7.93821C45.8081 8.19055 46.1441 8.70803 46.4945 9.43063C46.8375 10.1381 47.1708 10.9921 47.4525 11.8687C47.7341 12.7454 47.9606 13.6337 48.0938 14.4085C48.2299 15.2004 48.2581 15.8169 48.1849 16.1795L48.675 16.2785L48.1849 16.1795L48.1743 16.2321L48.1743 16.2321L48.173 16.2388C48.1058 16.5972 48.2303 16.995 48.5582 17.2383C48.8892 17.4847 49.3113 17.4834 49.6328 17.2984L49.6343 17.2975L50.1179 17.0168C52.4532 15.6605 55.337 15.6598 57.6707 17.0177L58.1528 17.2982L58.1528 17.2983L58.1602 17.3024C58.4803 17.4814 58.9001 17.4856 59.2323 17.2383C59.5598 16.9954 59.6857 16.5969 59.616 16.2369L59.616 16.2369L59.6152 16.2331L59.4549 15.4389C58.9379 12.8783 59.7897 10.2326 61.7032 8.45412L62.2551 7.94119L62.2551 7.94123L62.26 7.93654C62.5261 7.68228 62.6503 7.2855 62.5285 6.90022L62.0517 7.051L62.5285 6.90022C62.4064 6.51429 62.0735 6.25772 61.6991 6.21345L61.6971 6.21323L61.095 6.14451C58.4477 5.8427 56.1576 4.16186 55.0794 1.72595L54.7986 1.09164L54.7987 1.09161L54.7949 1.08346C54.6413 0.752555 54.307 0.5 53.8948 0.5C53.4838 0.5 53.1443 0.752969 52.9941 1.09103L52.9939 1.09145L52.7135 1.72455C51.6343 4.16112 49.3441 5.84333 46.6964 6.14325L46.0968 6.21118Z" fill="#FFC700" stroke="#FFA800"/>
<path d="M68.4552 6.21118L68.4552 6.21115L68.4502 6.21178C68.0773 6.25786 67.746 6.51359 67.6229 6.89873C67.4994 7.28492 67.6236 7.68558 67.8958 7.93821C68.1665 8.19055 68.5025 8.70803 68.8529 9.43063C69.1959 10.1381 69.5292 10.9921 69.8109 11.8687C70.0925 12.7454 70.319 13.6337 70.4522 14.4085C70.5883 15.2004 70.6165 15.8169 70.5433 16.1795L71.0334 16.2785L70.5433 16.1795L70.5327 16.2321L70.5327 16.2321L70.5314 16.2388C70.4642 16.5972 70.5887 16.995 70.9166 17.2383C71.2476 17.4847 71.6697 17.4834 71.9912 17.2984L71.9927 17.2975L72.4763 17.0168C74.8116 15.6605 77.6954 15.6598 80.0291 17.0177L80.5112 17.2982L80.5112 17.2983L80.5186 17.3024C80.8387 17.4814 81.2585 17.4856 81.5907 17.2383C81.9182 16.9954 82.0441 16.5969 81.9744 16.2369L81.9744 16.2369L81.9736 16.2331L81.8133 15.4389C81.2963 12.8783 82.1481 10.2326 84.0616 8.45412L84.6135 7.94119L84.6135 7.94123L84.6184 7.93654C84.8845 7.68228 85.0087 7.2855 84.8869 6.90022L84.4101 7.051L84.8869 6.90022C84.7648 6.51429 84.4319 6.25772 84.0575 6.21345L84.0555 6.21323L83.4534 6.14451C80.8061 5.8427 78.516 4.16186 77.4378 1.72595L77.157 1.09164L77.1571 1.09161L77.1533 1.08346C76.9997 0.752555 76.6654 0.5 76.2532 0.5C75.8422 0.5 75.5027 0.752969 75.3525 1.09103L75.3523 1.09145L75.0719 1.72455C73.9927 4.16112 71.7025 5.84333 69.0548 6.14325L68.4552 6.21118Z" fill="#FFC700" stroke="#FFA800"/>
<path d="M91.38 6.21118L91.38 6.21115L91.375 6.21178C91.0021 6.25786 90.6708 6.51359 90.5477 6.89873C90.4242 7.28492 90.5484 7.68558 90.8206 7.93821C91.0913 8.19055 91.4273 8.70803 91.7777 9.43063C92.1207 10.1381 92.454 10.9921 92.7357 11.8687C93.0173 12.7454 93.2438 13.6337 93.377 14.4085C93.5132 15.2004 93.5413 15.8169 93.4681 16.1795L93.9582 16.2785L93.4681 16.1795L93.4575 16.2321L93.4575 16.2321L93.4562 16.2388C93.389 16.5972 93.5135 16.995 93.8414 17.2383C94.1724 17.4847 94.5945 17.4834 94.916 17.2984L94.9175 17.2975L95.4011 17.0168C97.7364 15.6605 100.62 15.6598 102.954 17.0177L103.436 17.2982L103.436 17.2983L103.443 17.3024C103.763 17.4814 104.183 17.4856 104.516 17.2383C104.843 16.9954 104.969 16.5969 104.899 16.2369L104.899 16.2369L104.898 16.2331L104.738 15.4389C104.221 12.8783 105.073 10.2326 106.986 8.45412L107.538 7.94119L107.538 7.94123L107.543 7.93654C107.809 7.68228 107.934 7.2855 107.812 6.90022L107.335 7.051L107.812 6.90022C107.69 6.51429 107.357 6.25772 106.982 6.21345L106.98 6.21323L106.378 6.14451C103.731 5.8427 101.441 4.16186 100.363 1.72595L100.082 1.09164L100.082 1.09161L100.078 1.08346C99.9245 0.752555 99.5902 0.5 99.178 0.5C98.767 0.5 98.4275 0.752969 98.2773 1.09103L98.2771 1.09145L97.9967 1.72455C96.9175 4.16112 94.6273 5.84333 91.9796 6.14325L91.38 6.21118Z" fill="#A2A2A2" stroke="#8C8C8C"/>
</svg>
