<svg width="109" height="18" viewBox="0 0 109 18" fill="none" xmlns="http://www.w3.org/2000/svg">
<path d="M24.3133 6.24512L24.3133 6.24509L24.3083 6.24571C23.9354 6.2918 23.6042 6.54753 23.481 6.93267C23.3576 7.31886 23.4817 7.71951 23.754 7.97215C24.0246 8.22448 24.3607 8.74196 24.711 9.46457C25.0541 10.172 25.3874 11.026 25.669 11.9027C25.9507 12.7793 26.1772 13.6676 26.3104 14.4425C26.4465 15.2343 26.4747 15.8508 26.4015 16.2135L26.8916 16.3124L26.4015 16.2135L26.3909 16.266L26.3908 16.266L26.3896 16.2728C26.3224 16.6311 26.4468 17.029 26.7747 17.2722C27.1057 17.5186 27.5278 17.5173 27.8493 17.3323L27.8509 17.3314L28.3344 17.0507C30.6698 15.6944 33.5535 15.6937 35.8872 17.0516L36.3694 17.3321L36.3693 17.3322L36.3768 17.3364C36.6968 17.5153 37.1167 17.5195 37.4489 17.2723C37.7763 17.0293 37.9023 16.6308 37.8325 16.2708L37.8325 16.2708L37.8318 16.2671L37.6715 15.4729C37.1545 12.9122 38.0062 10.2665 39.9198 8.48806L40.4716 7.97513L40.4716 7.97516L40.4766 7.97047C40.7427 7.71622 40.8669 7.31943 40.745 6.93416L40.2683 7.08494L40.745 6.93415C40.623 6.54823 40.29 6.29165 39.9156 6.24739L39.9137 6.24717L39.3116 6.17844C36.6643 5.87663 34.3741 4.19579 33.2959 1.75988L33.0152 1.12558L33.0153 1.12554L33.0115 1.11739C32.8579 0.786491 32.5235 0.533936 32.1113 0.533936C31.7004 0.533936 31.3608 0.786904 31.2107 1.12497L31.2105 1.12538L30.93 1.75848C29.8508 4.19506 27.5607 5.87726 24.9129 6.17718L24.3133 6.24512Z" fill="#FFC700" stroke="#FFA800"/>
<path d="M1.95495 6.21118L1.95495 6.21115L1.94993 6.21178C1.57701 6.25786 1.24579 6.51359 1.12265 6.89873C0.999178 7.28492 1.12334 7.68558 1.3956 7.93821C1.66623 8.19055 2.00226 8.70803 2.35265 9.43063C2.69569 10.1381 3.02898 10.9921 3.31064 11.8687C3.59229 12.7454 3.8188 13.6337 3.95199 14.4085C4.0881 15.2004 4.11628 15.8169 4.04309 16.1795L4.5332 16.2785L4.04309 16.1795L4.03248 16.2321L4.03243 16.2321L4.03117 16.2388C3.96395 16.5972 4.08844 16.995 4.41633 17.2383C4.74731 17.4847 5.16942 17.4834 5.49091 17.2984L5.49246 17.2975L5.97603 17.0168C8.31138 15.6605 11.1951 15.6598 13.5288 17.0177L14.011 17.2982L14.0109 17.2983L14.0184 17.3024C14.3384 17.4814 14.7583 17.4856 15.0905 17.2383C15.4179 16.9954 15.5439 16.5969 15.4741 16.2369L15.4741 16.2369L15.4734 16.2331L15.3131 15.4389C14.7961 12.8783 15.6478 10.2326 17.5614 8.45412L18.1132 7.94119L18.1133 7.94123L18.1182 7.93654C18.3843 7.68228 18.5085 7.2855 18.3866 6.90022L17.9099 7.051L18.3866 6.90022C18.2646 6.51429 17.9316 6.25772 17.5572 6.21345L17.5553 6.21323L16.9532 6.14451C14.3059 5.8427 12.0157 4.16186 10.9375 1.72595L10.6568 1.09164L10.6569 1.09161L10.6531 1.08346C10.4995 0.752555 10.1651 0.5 9.75293 0.5C9.34199 0.5 9.00244 0.752969 8.85228 1.09103L8.8521 1.09145L8.57164 1.72455C7.49244 4.16112 5.20226 5.84333 2.55451 6.14325L1.95495 6.21118Z" fill="#FFC700" stroke="#FFA800"/>
<path d="M46.6717 6.21118L46.6717 6.21115L46.6667 6.21178C46.2938 6.25786 45.9626 6.51359 45.8394 6.89873C45.716 7.28492 45.8401 7.68558 46.1124 7.93821C46.383 8.19055 46.7191 8.70803 47.0694 9.43063C47.4125 10.1381 47.7458 10.9921 48.0274 11.8687C48.3091 12.7454 48.5356 13.6337 48.6688 14.4085C48.8049 15.2004 48.8331 15.8169 48.7599 16.1795L49.25 16.2785L48.7599 16.1795L48.7493 16.2321L48.7492 16.2321L48.748 16.2388C48.6808 16.5972 48.8052 16.995 49.1331 17.2383C49.4641 17.4847 49.8862 17.4834 50.2077 17.2984L50.2093 17.2975L50.6928 17.0168C53.0282 15.6605 55.9119 15.6598 58.2456 17.0177L58.7278 17.2982L58.7277 17.2983L58.7352 17.3024C59.0552 17.4814 59.4751 17.4856 59.8073 17.2383C60.1347 16.9954 60.2607 16.5969 60.1909 16.2369L60.1909 16.2369L60.1902 16.2331L60.0299 15.4389C59.5129 12.8783 60.3646 10.2326 62.2782 8.45412L62.83 7.94119L62.83 7.94123L62.835 7.93654C63.1011 7.68228 63.2253 7.2855 63.1034 6.90022L62.6267 7.051L63.1034 6.90022C62.9814 6.51429 62.6484 6.25772 62.274 6.21345L62.2721 6.21323L61.67 6.14451C59.0226 5.8427 56.7325 4.16186 55.6543 1.72595L55.3736 1.09164L55.3737 1.09161L55.3699 1.08346C55.2162 0.752555 54.8819 0.5 54.4697 0.5C54.0588 0.5 53.7192 0.752969 53.5691 1.09103L53.5689 1.09145L53.2884 1.72455C52.2092 4.16112 49.9191 5.84333 47.2713 6.14325L46.6717 6.21118Z" fill="#FFC700" stroke="#FFA800"/>
<path d="M69.0301 6.21118L69.0301 6.21115L69.0251 6.21178C68.6522 6.25786 68.321 6.51359 68.1978 6.89873C68.0744 7.28492 68.1985 7.68558 68.4708 7.93821C68.7414 8.19055 69.0775 8.70803 69.4278 9.43063C69.7709 10.1381 70.1042 10.9921 70.3858 11.8687C70.6675 12.7454 70.894 13.6337 71.0272 14.4085C71.1633 15.2004 71.1915 15.8169 71.1183 16.1795L71.6084 16.2785L71.1183 16.1795L71.1077 16.2321L71.1076 16.2321L71.1064 16.2388C71.0391 16.5972 71.1636 16.995 71.4915 17.2383C71.8225 17.4847 72.2446 17.4834 72.5661 17.2984L72.5677 17.2975L73.0512 17.0168C75.3866 15.6605 78.2703 15.6598 80.604 17.0177L81.0861 17.2982L81.0861 17.2983L81.0936 17.3024C81.4136 17.4814 81.8335 17.4856 82.1657 17.2383C82.4931 16.9954 82.6191 16.5969 82.5493 16.2369L82.5493 16.2369L82.5486 16.2331L82.3883 15.4389C81.8713 12.8783 82.723 10.2326 84.6366 8.45412L85.1884 7.94119L85.1884 7.94123L85.1934 7.93654C85.4595 7.68228 85.5837 7.2855 85.4618 6.90022L84.9851 7.051L85.4618 6.90022C85.3398 6.51429 85.0068 6.25772 84.6324 6.21345L84.6305 6.21323L84.0284 6.14451C81.381 5.8427 79.0909 4.16186 78.0127 1.72595L77.732 1.09164L77.7321 1.09161L77.7283 1.08346C77.5746 0.752555 77.2403 0.5 76.8281 0.5C76.4172 0.5 76.0776 0.752969 75.9275 1.09103L75.9273 1.09145L75.6468 1.72455C74.5676 4.16112 72.2775 5.84333 69.6297 6.14325L69.0301 6.21118Z" fill="#FFC700" stroke="#FFA800"/>
<path d="M91.3885 6.21118L91.3885 6.21115L91.3835 6.21178C91.0106 6.25786 90.6794 6.51359 90.5562 6.89873C90.4328 7.28492 90.5569 7.68558 90.8292 7.93821C91.0998 8.19055 91.4359 8.70803 91.7862 9.43063C92.1293 10.1381 92.4626 10.9921 92.7442 11.8687C93.0259 12.7454 93.2524 13.6337 93.3856 14.4085C93.5217 15.2004 93.5499 15.8169 93.4767 16.1795L93.9668 16.2785L93.4767 16.1795L93.4661 16.2321L93.466 16.2321L93.4648 16.2388C93.3975 16.5972 93.522 16.995 93.8499 17.2383C94.1809 17.4847 94.603 17.4834 94.9245 17.2984L94.9261 17.2975L95.4096 17.0168C97.745 15.6605 100.629 15.6598 102.962 17.0177L103.445 17.2982L103.445 17.2983L103.452 17.3024C103.772 17.4814 104.192 17.4856 104.524 17.2383C104.852 16.9954 104.977 16.5969 104.908 16.2369L104.908 16.2369L104.907 16.2331L104.747 15.4389C104.23 12.8783 105.081 10.2326 106.995 8.45412L107.547 7.94119L107.547 7.94123L107.552 7.93654C107.818 7.68228 107.942 7.2855 107.82 6.90022L107.343 7.051L107.82 6.90022C107.698 6.51429 107.365 6.25772 106.991 6.21345L106.989 6.21323L106.387 6.14451C103.739 5.8427 101.449 4.16186 100.371 1.72595L100.09 1.09164L100.09 1.09161L100.087 1.08346C99.933 0.752555 99.5987 0.5 99.1865 0.5C98.7756 0.5 98.436 0.752969 98.2859 1.09103L98.2857 1.09145L98.0052 1.72455C96.926 4.16112 94.6359 5.84333 91.9881 6.14325L91.3885 6.21118Z" fill="url(#paint0_linear_79_56)" stroke="#8C8C8C"/>
<defs>
<linearGradient id="paint0_linear_79_56" x1="90.0291" y1="10" x2="108.639" y2="10" gradientUnits="userSpaceOnUse">
<stop offset="0.495391" stop-color="#FFC700"/>
<stop offset="0.495491" stop-color="#A1A1A1"/>
</linearGradient>
</defs>
</svg>
